<?xml version="1.0" standalone="no"?>
<!DOCTYPE svg PUBLIC "-//W3C//DTD SVG 20010904//EN"
 "http://www.w3.org/TR/2001/REC-SVG-20010904/DTD/svg10.dtd">
<svg version="1.0" xmlns="http://www.w3.org/2000/svg"
 width="600.000000pt" height="444.000000pt" viewBox="0 0 600.000000 444.000000"
 preserveAspectRatio="xMidYMid meet">
<g transform="translate(0.000000,444.000000) scale(0.100000,-0.100000)"
fill="#000000" stroke="none">
<path d="M2709 4248 c-13 -5 -100 -18 -194 -28 -94 -11 -212 -31 -265 -45 -52
-15 -113 -27 -135 -28 -22 -1 -56 -12 -75 -24 -19 -11 -54 -26 -77 -32 -32 -9
-43 -17 -43 -31 0 -23 -73 -100 -95 -100 -8 0 -15 -6 -15 -13 0 -32 -40 -49
-145 -63 -22 -3 -58 -10 -80 -16 -22 -5 -65 -16 -95 -23 -49 -12 -151 -50
-198 -74 -9 -5 -61 -30 -114 -55 -75 -36 -97 -52 -100 -69 -2 -16 -12 -23 -34
-27 -30 -5 -43 -18 -152 -146 -48 -56 -70 -104 -88 -187 -27 -124 -28 -147
-10 -147 13 0 16 -11 16 -54 0 -76 -11 -99 -63 -129 -73 -43 -120 -117 -88
-139 10 -7 21 -25 24 -39 8 -30 -5 -44 -68 -76 -90 -45 -158 -83 -172 -95 -9
-7 -28 -18 -42 -25 -18 -8 -21 -12 -8 -12 29 -2 19 -17 -33 -49 -27 -17 -50
-38 -50 -47 0 -8 -5 -15 -10 -15 -6 0 -15 -11 -21 -24 -10 -20 -8 -30 12 -57
19 -27 22 -43 20 -98 -7 -186 -2 -201 54 -201 33 0 65 -25 65 -51 1 -25 23
-56 104 -144 89 -97 124 -120 172 -112 40 7 52 -7 30 -32 -25 -28 -85 -41
-184 -41 l-90 0 -40 48 c-38 43 -42 46 -57 31 -14 -14 -15 -20 -3 -40 23 -41
86 -111 116 -128 73 -41 71 -37 34 -70 -37 -34 -40 -60 -17 -135 8 -27 15 -71
15 -97 0 -43 3 -50 28 -63 42 -22 98 -87 112 -128 11 -35 15 -38 48 -38 54 -1
87 -20 122 -68 17 -23 43 -48 58 -55 15 -7 54 -33 88 -58 33 -25 81 -55 106
-68 33 -16 49 -31 57 -53 16 -45 15 -48 -26 -48 -21 0 -47 -7 -57 -15 -11 -8
-30 -15 -42 -15 -54 0 -204 -78 -204 -107 0 -7 -6 -16 -13 -20 -7 -4 -28 -30
-46 -56 -18 -27 -39 -51 -47 -54 -8 -3 -14 -11 -14 -18 0 -19 118 -125 139
-125 29 0 201 -65 257 -96 46 -27 56 -28 164 -28 63 0 143 6 177 13 57 12 63
16 69 44 3 17 17 50 30 74 19 36 22 53 17 93 -3 28 -2 50 3 50 5 0 24 -22 42
-49 19 -27 48 -63 64 -80 34 -34 215 -141 240 -141 8 0 30 -7 48 -16 45 -23
202 -32 615 -35 293 -3 362 -1 425 13 100 22 201 38 235 38 15 0 69 20 119 44
51 25 114 50 141 57 28 6 59 16 70 22 19 9 94 69 139 110 11 9 26 17 34 17 7
0 48 19 90 42 43 23 103 55 134 71 34 16 73 47 93 72 20 24 51 50 70 59 19 9
40 22 47 29 30 28 121 97 129 97 5 0 9 4 9 9 0 5 19 38 43 72 63 93 78 119 72
130 -8 12 -37 -4 -83 -45 -21 -18 -59 -46 -87 -61 -27 -16 -73 -46 -101 -67
-28 -21 -55 -38 -60 -38 -6 0 -30 -18 -54 -41 -61 -55 -143 -110 -215 -143
-33 -16 -81 -39 -107 -52 -26 -13 -65 -26 -85 -30 -21 -3 -57 -15 -80 -25 -94
-42 -129 -56 -148 -63 -49 -18 -188 -36 -276 -36 -62 0 -112 -6 -140 -16 -53
-19 -211 -21 -284 -4 -27 6 -90 16 -140 21 -211 20 -309 45 -387 98 -24 16
-72 43 -108 61 -39 19 -77 48 -95 70 -16 21 -41 45 -55 53 -14 8 -46 36 -71
61 -26 25 -52 46 -57 46 -19 0 -179 159 -196 194 -9 19 -23 36 -31 40 -9 3
-15 18 -15 36 0 21 -14 47 -45 86 -25 30 -45 65 -45 77 0 20 -22 63 -40 77 -3
3 -17 31 -29 62 -24 60 -25 100 -2 186 8 31 8 59 0 105 -6 34 -14 94 -18 132
-3 39 -10 76 -14 82 -4 7 -14 43 -22 80 -13 57 -13 94 -3 233 6 91 16 171 21
178 14 18 37 -4 37 -34 0 -19 5 -24 25 -24 15 0 25 6 25 15 0 9 8 14 22 12 18
-1 23 4 28 28 l6 30 14 -30 c11 -21 28 -34 60 -45 64 -21 67 -24 101 -95 55
-112 162 -191 335 -247 101 -33 263 -31 354 4 98 38 204 95 217 116 6 11 26
22 44 26 50 10 69 32 69 83 0 30 5 45 15 50 9 3 17 4 19 2 2 -2 1 -37 -3 -76
-7 -80 1 -91 39 -53 15 15 20 33 20 70 0 40 5 56 28 81 26 29 31 31 109 32 77
2 85 0 126 -29 24 -17 59 -37 78 -43 31 -10 36 -17 47 -66 7 -31 10 -64 7 -75
-5 -15 -2 -20 12 -20 10 -1 54 -34 98 -75 44 -41 86 -75 93 -75 7 0 27 -7 45
-17 48 -24 183 -52 256 -53 82 0 225 27 273 51 21 10 44 19 53 19 20 0 162
136 171 163 11 36 30 47 97 56 49 7 71 15 91 36 19 19 32 24 44 19 9 -4 71 -8
137 -9 78 0 128 -5 143 -13 27 -15 25 -36 -4 -40 -14 -2 -23 -18 -34 -67 -15
-61 -15 -64 3 -69 14 -3 18 -10 12 -23 -17 -41 -17 -53 -2 -53 11 0 13 -9 10
-44 -5 -37 -2 -46 21 -68 24 -21 27 -34 33 -111 l6 -87 51 0 c29 0 57 5 63 11
17 17 114 48 130 42 18 -7 17 -77 -3 -116 -9 -18 -32 -51 -50 -74 -40 -48 -41
-53 -14 -53 29 0 25 -13 -20 -72 -32 -42 -40 -62 -40 -95 0 -47 -19 -73 -54
-73 -15 0 -27 9 -34 26 -12 25 -32 25 -32 0 0 -8 -11 -21 -25 -30 -16 -11 -25
-26 -25 -43 0 -15 -7 -35 -16 -45 -14 -14 -14 -20 -4 -33 10 -12 8 -25 -11
-72 -12 -32 -26 -60 -29 -63 -18 -14 -60 -100 -60 -122 0 -50 -13 -88 -38
-115 -35 -37 -88 -106 -99 -129 -13 -25 -57 -233 -51 -239 2 -3 18 -7 34 -10
24 -5 40 2 94 43 l65 50 24 -19 c32 -25 101 -26 101 -1 0 15 10 17 80 17 57 0
80 -3 80 -12 0 -27 86 -45 117 -25 7 5 25 42 39 83 33 91 63 133 117 160 23
12 45 26 49 32 9 15 -2 37 -18 37 -25 0 -27 28 -5 59 12 16 21 34 21 40 0 6
18 20 40 31 45 23 48 36 30 131 -11 59 0 85 22 50 17 -28 30 -27 56 8 16 22
31 31 59 33 36 3 38 5 41 41 3 30 9 40 28 47 26 10 24 30 -3 30 -8 0 -29 6
-46 14 -18 7 -54 21 -82 31 -94 33 -116 73 -32 59 128 -20 239 0 146 27 -65
18 -69 29 -11 29 74 0 65 17 -14 25 -58 7 -64 9 -51 22 12 13 21 13 52 3 46
-15 109 -6 180 26 60 28 77 44 46 44 -11 0 -23 5 -27 11 -5 8 6 10 37 5 77
-11 84 -11 89 -1 2 6 -17 21 -43 35 -26 14 -53 36 -60 50 -7 14 -21 26 -32 29
-11 2 -40 24 -65 48 -51 51 -50 52 75 14 39 -12 109 -24 158 -28 101 -7 99 -9
66 84 -21 58 -86 133 -115 133 -7 0 -38 33 -68 73 -48 63 -53 72 -36 75 29 5
24 25 -10 46 -39 22 -79 83 -91 136 -11 51 -67 170 -80 170 -5 0 -9 6 -9 14 0
8 -19 38 -43 68 -82 102 -92 131 -62 188 13 25 13 32 0 56 -12 24 -12 31 6 65
37 73 18 158 -52 224 -17 17 -41 50 -54 75 -30 59 -67 98 -110 116 -33 14 -48
34 -24 34 7 0 9 11 6 29 -5 23 -2 30 19 39 37 18 32 54 -15 91 -51 41 -95 129
-56 115 61 -24 -76 106 -165 156 -107 60 -221 110 -250 110 -65 0 -281 90
-296 123 -9 23 -66 56 -97 57 -24 0 -164 67 -204 96 -17 13 -36 24 -41 24 -6
0 -40 15 -77 33 -58 29 -65 35 -51 46 24 20 20 29 -17 45 -60 25 -130 29 -198
12 -44 -11 -105 -16 -194 -15 -71 1 -155 1 -185 0 -41 0 -68 6 -104 24 -30 15
-68 25 -95 26 -25 0 -40 3 -33 6 26 10 10 23 -31 23 -23 0 -74 9 -112 21 -84
25 -114 28 -146 17z m291 -620 c0 -24 -9 -63 -21 -87 l-20 -45 28 -23 c33 -27
55 -26 68 5 12 27 22 28 30 2 3 -11 10 -20 14 -20 12 0 28 22 32 44 7 36 29
30 29 -8 0 -25 4 -36 15 -36 11 0 15 12 15 44 0 25 4 47 8 50 11 7 47 -42 55
-74 3 -14 10 -40 14 -59 9 -38 29 -52 35 -24 3 15 13 18 58 18 48 0 55 3 55
19 0 33 20 28 30 -6 13 -42 49 -54 39 -13 -6 25 -5 26 14 16 32 -17 34 -14 30
28 -2 22 0 37 4 35 5 -3 8 -12 8 -20 0 -8 4 -14 8 -14 4 0 14 -15 21 -32 24
-57 25 1 2 77 -12 37 -21 69 -21 71 0 12 38 1 75 -20 23 -14 72 -32 110 -41
44 -10 73 -23 82 -35 8 -11 20 -20 26 -20 24 0 95 -78 122 -134 15 -31 36 -61
45 -66 12 -7 20 -27 25 -62 3 -29 10 -73 15 -98 5 -25 17 -88 26 -140 29 -169
74 -233 258 -375 44 -33 96 -75 116 -92 21 -18 41 -33 46 -33 17 0 73 -60 90
-95 13 -28 22 -35 45 -35 32 0 37 -11 14 -30 -8 -7 -15 -18 -15 -25 0 -18
-136 -29 -245 -20 -69 6 -91 12 -106 28 -10 11 -19 25 -19 29 0 5 -9 18 -19
30 -25 26 -57 18 -42 -11 21 -38 -22 -42 -77 -7 -20 14 -59 45 -85 69 -26 25
-60 49 -75 55 -106 39 -236 74 -277 74 -34 1 -59 8 -83 25 -55 37 -100 46
-198 39 -49 -3 -100 -7 -114 -10 -14 -2 -30 -4 -36 -5 -5 0 -20 -11 -33 -22
-17 -16 -26 -18 -34 -10 -6 6 -21 11 -33 11 -13 0 -26 5 -29 11 -4 5 -17 14
-30 19 -19 7 -23 18 -27 64 -3 31 -7 59 -11 62 -15 15 -27 -12 -27 -62 0 -30
-5 -62 -11 -72 -16 -25 13 -68 57 -87 46 -19 74 -49 67 -74 -3 -14 4 -28 23
-44 l28 -24 -26 -26 c-31 -30 -46 -29 -137 16 -84 41 -168 48 -234 18 -25 -12
-47 -21 -49 -21 -2 0 -2 16 0 36 3 27 -1 41 -19 60 l-23 25 48 45 c36 32 46
48 38 56 -8 8 -22 6 -52 -6 -48 -19 -80 -13 -80 13 0 27 -28 47 -42 33 -20
-20 -43 -14 -73 18 -27 28 -35 31 -95 31 -205 0 -268 -5 -282 -23 -19 -23
-231 -34 -248 -12 -18 20 -8 26 50 32 27 2 48 8 45 12 -3 4 -34 5 -70 2 -56
-4 -65 -2 -65 12 0 18 -5 19 -67 16 -46 -2 -58 15 -21 29 13 5 -13 6 -62 3
l-85 -5 25 22 25 22 -30 -6 c-16 -3 -35 -12 -41 -20 -13 -17 -77 -19 -171 -3
-73 12 -73 12 -73 43 0 17 8 40 18 51 38 40 54 78 44 103 -8 22 -2 31 51 83
33 33 79 68 103 79 23 11 61 42 83 69 29 34 54 53 81 61 42 13 51 26 25 35
-19 8 -19 48 -1 67 8 8 45 17 86 20 53 4 78 11 93 26 104 98 109 101 154 101
24 0 79 12 122 26 59 19 85 23 110 17 42 -11 41 -25 -3 -40 -49 -17 -86 -42
-86 -59 0 -22 49 -17 108 11 34 16 72 25 103 25 49 0 93 14 118 38 7 7 21 10
30 7 12 -4 29 9 57 44 38 49 68 64 77 39 3 -10 7 -10 18 -2 8 7 30 15 49 19
51 10 149 58 150 73 0 6 7 12 15 12 11 0 15 -11 15 -42z m467 -155 c-4 -3 -7
0 -7 7 0 7 3 10 7 7 3 -4 3 -10 0 -14z m-2547 -190 c-17 -27 -46 -66 -65 -87
-31 -35 -35 -37 -35 -17 0 14 21 45 53 78 28 30 54 59 55 64 2 5 8 9 13 9 5 0
-5 -21 -21 -47z m1246 -782 c33 -18 34 -20 16 -30 -11 -6 -72 -9 -143 -8 -107
1 -132 -2 -182 -21 -55 -21 -136 -29 -150 -15 -10 9 13 33 32 33 9 0 27 9 41
20 22 17 41 20 167 20 83 0 144 4 148 10 9 15 31 12 71 -9z m1609 -22 c22 -6
56 -14 75 -18 95 -21 300 -178 300 -229 0 -34 -66 -148 -115 -196 -40 -40 -87
-68 -175 -101 -54 -21 -284 -32 -345 -17 -121 30 -188 66 -252 132 -57 59 -62
70 -38 90 12 10 13 16 4 26 -6 8 -17 14 -24 14 -6 0 -20 9 -29 19 -16 18 -16
22 5 70 26 62 76 108 126 116 21 4 50 10 66 15 22 7 31 5 47 -12 28 -31 25
-45 -12 -53 -49 -11 -108 -36 -108 -46 0 -12 50 -11 88 2 17 6 39 9 49 7 11
-2 -4 -11 -37 -22 -76 -26 -80 -32 -20 -45 63 -14 60 -14 60 2 0 8 10 19 23
26 12 6 42 22 67 36 52 28 100 33 100 10 0 -9 -8 -18 -17 -22 -31 -11 -53 -35
-53 -58 0 -39 35 -58 128 -71 48 -6 70 -12 50 -13 -66 -2 -87 -20 -48 -41 14
-8 37 -6 85 5 37 8 79 15 96 15 16 0 29 3 29 8 0 15 -41 42 -65 42 -22 0 -25
4 -23 33 1 17 -2 40 -6 50 -20 43 64 -1 94 -50 15 -25 30 -33 90 -47 39 -10
74 -15 77 -12 3 3 3 17 -1 31 -10 39 -68 92 -117 106 -24 7 -48 16 -54 20 -5
4 -44 14 -85 24 -41 9 -95 23 -120 30 -25 7 -58 16 -74 20 -23 5 -27 8 -15 16
7 5 24 9 36 9 12 0 25 5 29 12 9 14 -31 48 -57 48 -19 0 -25 11 -12 23 10 11
133 8 178 -4z m-1222 -87 c19 -16 22 -38 8 -46 -10 -7 -111 43 -111 54 0 14
85 7 103 -8z m-2167 -38 c-3 -8 -10 -14 -16 -14 -14 0 -13 28 3 44 10 12 13
12 15 -1 2 -8 1 -21 -2 -29z m1910 11 c51 -54 174 -94 174 -57 0 6 -19 15 -43
20 -24 6 -52 21 -62 32 -19 21 -19 21 8 11 15 -6 40 -17 57 -26 16 -8 54 -15
85 -15 110 0 122 -33 48 -137 -13 -17 -23 -35 -23 -40 0 -31 -118 -99 -225
-128 -74 -21 -230 -24 -305 -6 -137 33 -253 101 -310 181 -25 35 -39 100 -21
100 6 0 11 -7 11 -15 0 -10 10 -15 29 -15 17 0 42 -11 59 -25 25 -21 34 -23
61 -15 22 6 49 4 87 -6 66 -17 97 -18 164 -3 54 11 63 25 28 38 -21 8 -21 8 5
13 21 4 30 0 39 -16 6 -11 12 -22 13 -24 1 -1 28 7 59 18 60 23 76 44 26 34
-29 -6 -30 -5 -30 28 0 20 -8 43 -19 55 -23 25 -18 33 22 33 21 0 39 -10 63
-35z m368 4 c27 -31 27 -53 1 -43 -8 4 -12 10 -9 15 3 5 -7 20 -23 34 -21 18
-24 24 -11 25 9 0 28 -14 42 -31z m-674 13 c0 -5 -7 -17 -15 -28 -23 -30 -18
-53 18 -74 l32 -20 -28 0 c-16 0 -49 5 -74 12 -40 10 -44 12 -25 19 17 6 22
17 22 43 0 28 5 36 28 44 35 13 42 14 42 4z m135 -32 c3 -5 -1 -10 -9 -10 -9
0 -16 5 -16 10 0 6 4 10 9 10 6 0 13 -4 16 -10z m2105 -100 c0 -12 -38 -23
-50 -15 -18 11 8 34 30 28 11 -3 20 -9 20 -13z m-543 -17 c-4 -3 -10 -3 -14 0
-3 4 0 7 7 7 7 0 10 -3 7 -7z m-3291 -80 l-15 -28 -1 31 c0 33 23 67 28 40 2
-8 -4 -27 -12 -43z"/>
<path d="M3515 3380 c3 -5 8 -10 11 -10 2 0 4 5 4 10 0 6 -5 10 -11 10 -5 0
-7 -4 -4 -10z"/>
<path d="M3427 2949 c47 -47 139 -102 223 -134 25 -9 68 -27 95 -40 75 -34
137 -46 176 -35 19 6 46 10 61 10 40 0 45 20 13 47 -20 17 -34 23 -49 18 -64
-21 -157 -10 -266 30 -19 8 -67 25 -105 39 -39 14 -87 37 -107 51 -38 26 -60
33 -41 14z"/>
<path d="M1925 2700 c-8 -13 55 -13 75 0 11 7 4 10 -27 10 -23 0 -45 -4 -48
-10z"/>
<path d="M3610 2141 c0 -9 24 -21 42 -21 6 0 6 6 -2 15 -14 16 -40 20 -40 6z"/>
<path d="M2526 1914 l-30 -26 32 -27 c28 -23 32 -32 32 -73 0 -57 16 -64 25
-10 4 20 16 57 26 81 19 41 19 44 3 62 -23 26 -53 23 -88 -7z"/>
<path d="M3126 1842 c-6 -11 40 -53 48 -45 3 4 6 14 6 24 0 23 -42 40 -54 21z"/>
<path d="M2380 1795 c-38 -27 -62 -78 -50 -110 8 -24 85 -68 156 -89 41 -13
54 -22 64 -46 12 -29 48 -61 99 -87 28 -16 208 -17 266 -3 22 6 92 14 157 19
131 10 182 28 209 76 28 48 24 55 -28 55 -27 0 -61 7 -77 15 -50 26 -120 19
-210 -22 -97 -44 -152 -51 -228 -29 -41 12 -65 27 -87 53 -53 62 -77 73 -163
73 l-78 0 0 33 c0 18 7 42 15 53 31 41 8 46 -45 9z"/>
<path d="M2400 1240 c-107 -11 -306 -87 -297 -113 6 -18 36 -14 300 43 l109
24 241 -17 c239 -17 275 -23 455 -76 38 -12 80 -21 94 -21 14 0 41 -6 59 -14
44 -18 161 -25 166 -10 2 7 -26 18 -74 29 -43 10 -116 30 -163 46 -136 44
-237 67 -355 79 -60 6 -149 18 -196 26 -89 14 -223 16 -339 4z"/>
<path d="M2300 1068 c0 -26 162 -57 457 -89 132 -14 307 2 318 29 13 34 -9 37
-385 52 -157 7 -309 14 -337 17 -41 4 -53 2 -53 -9z"/>
</g>
</svg>
